<svg xmlns="http://www.w3.org/2000/svg" width="18" height="18" viewBox="0 0 18 18"><g fill="none" stroke="context-fill" stroke-linecap="round" stroke-linejoin="round" stroke-opacity="context-fill-opacity" stroke-width="1.5" class="nc-icon-wrapper"><path d="M7.285,14.25h6.965c1.105,0,2-.895,2-2V5.75c0-.138-.014-.273-.041-.403"/><path d="M14.25,3.75h-2.25l-.507-1.351c-.146-.39-.519-.649-.936-.649h-3.114c-.417,0-.79,.259-.936,.649l-.507,1.351H3.75c-1.105,0-2,.895-2,2v6.5c0,1.105,.895,2,2,2"/><path d="M7.055,10.945c-.498-.498-.805-1.185-.805-1.945,0-1.519,1.231-2.75,2.75-2.75,.759,0,1.447,.308,1.945,.805" data-color="color-2"/><circle cx="4.25" cy="6.25" r=".75" fill="currentColor" stroke="none" data-color="color-2" data-stroke="none"/><line x1="2" x2="16" y1="16" y2="2" data-color="color-2"/></g></svg>