<svg xmlns="http://www.w3.org/2000/svg" width="18" height="18" viewBox="0 0 18 18"><g fill="none" stroke="context-fill" stroke-linecap="round" stroke-linejoin="round" stroke-opacity="context-fill-opacity" stroke-width="1.5" class="nc-icon-wrapper"><path d="M13.368,4.632c-.726-1.694-2.408-2.882-4.368-2.882h0c-2.623,0-4.75,2.127-4.75,4.75v4.75c0,1.105-.895,2-2,2h2.5"/><path d="M8,13.25h7.75c-1.105,0-2-.895-2-2v-3.5"/><path fill="currentColor" stroke="none" d="M10.588,15.185c-.095-.117-.237-.185-.388-.185h-2.399c-.151,0-.293,.068-.388,.185-.095,.117-.132,.271-.101,.418,.173,.822,.868,1.397,1.689,1.397s1.516-.575,1.689-1.397c.031-.147-.006-.301-.101-.418Z" data-color="color-2" data-stroke="none"/><line x1="2" x2="16" y1="16" y2="2" data-color="color-2"/></g></svg>