<svg xmlns="http://www.w3.org/2000/svg" width="18" height="18" viewBox="0 0 18 18"><g fill="none" stroke="context-fill" stroke-linecap="round" stroke-linejoin="round" stroke-opacity="context-fill-opacity" stroke-width="1.5" class="nc-icon-wrapper"><circle cx="9" cy="12.25" r=".75" fill="currentColor" stroke="none" data-color="color-2" data-stroke="none"/><circle cx="11.75" cy="12.25" r=".75" fill="currentColor" stroke="none" data-color="color-2" data-stroke="none"/><circle cx="6.25" cy="12.25" r=".75" fill="currentColor" stroke="none" data-color="color-2" data-stroke="none"/><path d="M6.25,15.25h-1c-1.105,0-2-.895-2-2v-2.625c0-.897-.728-1.625-1.625-1.625,.897,0,1.625-.728,1.625-1.625v-2.625c0-1.105,.895-2,2-2h1"/><path d="M11.75,15.25h1c1.105,0,2-.895,2-2v-2.625c0-.897,.728-1.625,1.625-1.625-.897,0-1.625-.728-1.625-1.625v-2.625c0-1.105-.895-2-2-2h-1"/></g></svg>