<svg xmlns="http://www.w3.org/2000/svg" width="18" height="18" viewBox="0 0 18 18"><g fill="none" stroke="context-fill" stroke-linecap="round" stroke-linejoin="round" stroke-opacity="context-fill-opacity" stroke-width="1.5" class="nc-icon-wrapper"><path d="M12.75,2.75h1.5c1.105,0,2,.895,2,2v6.5c0,1.105-.895,2-2,2H3.75c-1.105,0-2-.895-2-2V4.75c0-1.105,.895-2,2-2h1.5"/><path d="M5.75,16.25c.758-.239,1.878-.5,3.25-.5,.795,0,1.941,.088,3.25,.5"/><line x1="9" x2="9" y1="13.25" y2="15.75"/><polyline points="6.25 5.5 9 2.75 11.75 5.5" data-color="color-2"/><line x1="9" x2="9" y1="2.75" y2="10.25" data-color="color-2"/></g></svg>