<svg xmlns="http://www.w3.org/2000/svg" width="18" height="18" viewBox="0 0 18 18"><g fill="none" stroke="context-fill" stroke-linecap="round" stroke-linejoin="round" stroke-opacity="context-fill-opacity" stroke-width="1.5" class="nc-icon-wrapper"><path d="M2.25,8.75V4.75c0-1.105,.895-2,2-2h1.951c.607,0,1.18,.275,1.56,.748l.603,.752h5.386c1.105,0,2,.895,2,2v2.844"/><path d="M15.75,10.313v-1.563c0-1.104-.895-2-2-2H4.25c-1.105,0-2,.896-2,2v4.5c0,1.104,.895,2,2,2h5"/><path d="M12.539,11.323l4.204,2.477c.343,.202,.343,.697,0,.899l-4.204,2.477c-.349,.206-.789-.045-.789-.449v-4.955c0-.404,.441-.655,.789-.449Z" data-color="color-2"/></g></svg>